<svg width="50" height="50" viewBox="0 0 50 50" fill="none" xmlns="http://www.w3.org/2000/svg">
<rect width="50" height="50" rx="25" fill="#019595"/>
<path d="M29.6875 15.6241C29.6875 12.8589 27.2936 10.6535 24.4652 10.9661C22.3694 11.1982 20.6458 12.8697 20.3585 14.9585C20.1658 16.3567 20.5914 17.6561 21.4 18.6241C22.5466 19.9961 23.125 21.7549 23.125 23.5427V24.0616H26.875V23.5441C26.875 21.6977 27.5739 19.9511 28.7064 18.4924C29.3214 17.6997 29.6875 16.705 29.6875 15.6241Z" fill="#FF9D00"/>
<path d="M25 16.5625C25.7753 16.5625 26.4062 15.9316 26.4062 15.1562C26.4062 14.3809 25.7753 13.75 25 13.75C24.2247 13.75 23.5938 14.3809 23.5938 15.1562C23.5938 15.9316 24.2247 16.5625 25 16.5625ZM25 14.6875C25.2583 14.6875 25.4688 14.898 25.4688 15.1562C25.4688 15.4145 25.2583 15.625 25 15.625C24.7417 15.625 24.5312 15.4145 24.5312 15.1562C24.5312 14.898 24.7417 14.6875 25 14.6875Z" fill="#EEFFFF"/>
<path d="M25 26.4062C24.483 26.4062 24.0625 25.9858 24.0625 25.4688H23.125C23.125 26.5028 23.9659 27.3438 25 27.3438C26.0341 27.3438 26.875 26.5028 26.875 25.4688H25.9375C25.9375 25.9858 25.517 26.4062 25 26.4062Z" fill="#EEFFFF"/>
<path d="M36.58 25.9384C36.6695 25.6408 36.7188 25.3258 36.7188 24.9995C36.7188 23.9036 36.1609 22.8826 35.2563 22.277C35.2928 22.0961 35.3125 21.9095 35.3125 21.7183C35.3125 20.4629 34.4856 19.3975 33.348 19.037C33.0062 17.4854 31.6994 16.3117 30.1305 16.1233C30.1459 15.9583 30.1562 15.7923 30.1562 15.6245C30.1562 14.1601 29.53 12.7595 28.4383 11.7822C27.348 10.8058 25.8813 10.3398 24.4136 10.5011C22.1102 10.7561 20.2094 12.6039 19.8939 14.8956C19.8367 15.3104 19.8334 15.7206 19.8714 16.1228C18.3016 16.3108 16.9938 17.485 16.652 19.037C15.5144 19.3975 14.6875 20.4629 14.6875 21.7183C14.6875 21.9095 14.7072 22.0961 14.7437 22.277C13.8391 22.8826 13.2812 23.9036 13.2812 24.9995C13.2812 25.3258 13.3305 25.6408 13.42 25.9384C12.7319 26.7076 12.3438 27.707 12.3438 28.7495C12.3438 30.3836 13.27 31.8442 14.7269 32.5464C14.9111 33.8734 15.8027 35.0012 17.0411 35.5014C17.1409 37.7397 18.9878 39.5308 21.25 39.5308C22.8827 39.5308 24.2992 38.5965 25 37.2358C25.7008 38.5965 27.1173 39.5308 28.75 39.5308C31.0122 39.5308 32.8591 37.7397 32.9589 35.5014C34.1969 35.0012 35.0884 33.8734 35.2727 32.5464C36.73 31.8442 37.6562 30.3836 37.6562 28.7495C37.6562 27.707 37.2681 26.7076 36.58 25.9384ZM20.823 15.0231C21.0808 13.1509 22.6342 11.6411 24.5167 11.4329C25.7378 11.2975 26.9078 11.6701 27.813 12.4806C28.7064 13.2803 29.2188 14.4264 29.2188 15.6245C29.2188 16.5686 28.9136 17.4611 28.3361 18.205C27.4886 19.2967 26.9163 20.4887 26.627 21.7183H25.4688V17.4995H24.5312V21.7183H23.3913C23.1166 20.4564 22.5648 19.2878 21.76 18.324C20.9894 17.402 20.6566 16.2301 20.823 15.0231ZM23.5431 22.6558H26.463C26.4292 22.9511 26.4062 23.2473 26.4062 23.5445V23.5933H23.5938V23.5431C23.5938 23.244 23.5731 22.9487 23.5431 22.6558ZM34.6586 31.7931L34.3834 31.9037L34.3656 32.2C34.307 33.1825 33.7319 34.0473 32.8886 34.5025C32.5103 32.5628 30.7994 31.0933 28.75 31.0933V32.0308C30.5594 32.0308 32.0312 33.5026 32.0312 35.312C32.0312 37.1214 30.5594 38.5933 28.75 38.5933C26.9406 38.5933 25.4688 37.1214 25.4688 35.312V30.1558H24.5312V35.312C24.5312 37.1214 23.0594 38.5933 21.25 38.5933C19.4406 38.5933 17.9688 37.1214 17.9688 35.312C17.9688 33.5026 19.4406 32.0308 21.25 32.0308V31.0933C19.2006 31.0933 17.4897 32.5628 17.1109 34.5025C16.2677 34.0473 15.6925 33.1825 15.6339 32.2L15.6161 31.9037L15.3409 31.7931C14.0898 31.2901 13.2812 30.0958 13.2812 28.7495C13.2812 28.0731 13.4936 27.4206 13.8737 26.875C14.4677 27.7234 15.4506 28.2808 16.5625 28.2808C17.3716 28.2808 18.1483 27.984 18.7506 27.445L18.1253 26.7465C17.6955 27.1314 17.14 27.3433 16.5625 27.3433C15.2702 27.3433 14.2188 26.2919 14.2188 24.9995C14.2188 24.2856 14.5497 23.6148 15.0977 23.1733C15.5912 23.9856 16.4819 24.5308 17.5 24.5308V23.5933C16.4659 23.5933 15.625 22.7523 15.625 21.7183C15.625 20.6842 16.4659 19.8433 17.5 19.8433C18.5341 19.8433 19.375 20.6842 19.375 21.7183H20.3125C20.3125 20.2215 19.1364 18.9976 17.6603 18.9137C18.0194 17.8947 18.9527 17.162 20.0439 17.0556C20.2389 17.732 20.5736 18.3662 21.0405 18.9254C22.0825 20.1723 22.6562 21.8125 22.6562 23.5431V24.5308H27.3438V23.5445C27.3438 21.8879 27.9428 20.2403 29.0767 18.7801C29.4822 18.2579 29.7737 17.6744 29.9523 17.0551C31.0455 17.1606 31.9806 17.8933 32.3402 18.9137C30.8636 18.9976 29.6875 20.2215 29.6875 21.7183H30.625C30.625 20.6842 31.4659 19.8433 32.5 19.8433C33.5341 19.8433 34.375 20.6842 34.375 21.7183C34.375 22.7523 33.5341 23.5933 32.5 23.5933V24.5308C33.5181 24.5308 34.4088 23.9856 34.9023 23.1733C35.4503 23.6148 35.7812 24.2856 35.7812 24.9995C35.7812 26.2919 34.7298 27.3433 33.4375 27.3433C32.86 27.3433 32.3045 27.1314 31.8747 26.7465L31.2494 27.445C31.8517 27.984 32.6284 28.2808 33.4375 28.2808C34.5494 28.2808 35.5323 27.7234 36.1262 26.875C36.5064 27.4206 36.7188 28.0731 36.7188 28.7495C36.7188 30.0958 35.9102 31.2901 34.6586 31.7931Z" fill="#EEFFFF"/>
<path d="M25.4688 28.2812H24.5312V29.2188H25.4688V28.2812Z" fill="#FF9D00"/>
<path d="M33.9062 29.6875H32.9688V30.625H33.9062V29.6875Z" fill="#FF9D00"/>
<path d="M19.8438 24.5312H18.9062V25.4688H19.8438V24.5312Z" fill="#FF9D00"/>
<path d="M21.7188 34.8438H20.7812V35.7812H21.7188V34.8438Z" fill="#FF9D00"/>
<path d="M28.2812 27.3438H27.3438V28.2812H28.2812V27.3438Z" fill="#FF9D00"/>
<path d="M32.5 21.7188H31.5625V22.6562H32.5V21.7188Z" fill="#FF9D00"/>
<path d="M17.0312 30.1562H16.0938V31.0938H17.0312V30.1562Z" fill="#FF9D00"/>
<path d="M29.6875 33.4375H28.75V34.375H29.6875V33.4375Z" fill="#FF9D00"/>
</svg>
