<svg width="70" height="70" viewBox="0 0 70 70" fill="none" xmlns="http://www.w3.org/2000/svg">
<rect width="70" height="70" rx="35" fill="#019595"/>
<g clip-path="url(#clip0_721_430)">
<path d="M24.9915 23.2309C24.8829 23.2309 24.7759 23.1843 24.7015 23.0943C24.5694 22.9343 24.5922 22.6976 24.7521 22.5656C27.6292 20.1926 31.2698 18.8857 35.0032 18.8857C38.7322 18.8857 42.3714 20.1911 45.2503 22.5616C45.4102 22.6935 45.4333 22.9302 45.3016 23.0903C45.1696 23.2504 44.9334 23.2735 44.7728 23.1414C42.028 20.8814 38.5587 19.6368 35.0031 19.6368C31.4435 19.6368 27.9727 20.8829 25.2302 23.145C25.1602 23.2029 25.0755 23.2309 24.9915 23.2309Z" fill="white"/>
<path d="M47.2709 18.4746C47.2709 17.025 48.4501 15.8496 49.8959 15.8496C51.3455 15.8496 52.5209 17.0251 52.5209 18.4746C52.5209 19.9241 51.3454 21.1034 49.8959 21.1034C48.45 21.1034 47.2709 19.9241 47.2709 18.4746Z" fill="white"/>
<path d="M54.1508 25.6958C54.1508 26.6384 53.3847 27.4083 52.4421 27.4083H47.3535C46.4071 27.4083 45.641 26.6384 45.641 25.6958C45.641 23.7205 47.2521 22.1094 49.2312 22.1094H50.5644C52.5397 22.1094 54.1508 23.7205 54.1508 25.6958Z" fill="white"/>
<path d="M49.8659 28.7645C50.692 30.7436 51.1127 32.8429 51.1127 34.9985C51.1127 37.1691 50.6883 39.2722 49.8509 41.2551C49.7908 41.4015 49.6518 41.4879 49.5053 41.4879C49.4565 41.4879 49.4077 41.4766 49.3589 41.4578C49.1712 41.3752 49.081 41.1574 49.1598 40.9659C49.9598 39.0731 50.3616 37.0677 50.3616 34.9985C50.3616 32.9405 49.9635 30.9427 49.1711 29.0537C49.0922 28.8622 49.1823 28.6444 49.3739 28.5617C49.5654 28.4829 49.7832 28.573 49.8659 28.7645Z" fill="white"/>
<path d="M42.216 32.6365H41.7391C41.6527 32.3886 41.5513 32.1446 41.4387 31.9042L41.7766 31.57C42.2461 31.1005 42.2461 30.3344 41.7766 29.865L40.1355 28.2239C39.6812 27.7696 38.885 27.7696 38.4305 28.2239L38.0926 28.5619C37.856 28.4493 37.6119 28.3479 37.3641 28.2615V27.7846C37.3641 27.1199 36.8233 26.5791 36.1586 26.5791H33.8377C33.1768 26.5791 32.636 27.1199 32.636 27.7846V28.2577C32.3882 28.3441 32.1441 28.4454 31.9037 28.5619L31.5694 28.2239C31.1 27.7582 30.3339 27.7545 29.8644 28.2239L28.2234 29.865C27.7539 30.3345 27.7539 31.1006 28.2234 31.57L28.5613 31.9042C28.4449 32.1446 28.3435 32.3886 28.2571 32.6365H27.7839C27.1192 32.6365 26.5784 33.1773 26.5784 33.842V36.1591C26.5784 36.8238 27.1192 37.3646 27.7839 37.3646H28.2571C28.3434 37.6125 28.4448 37.8603 28.5613 38.0969L28.2234 38.4311C27.7539 38.9006 27.7539 39.6667 28.2234 40.1361L29.8644 41.7771C30.3339 42.2466 31.1 42.2429 31.5694 41.7771L31.9037 41.4392C32.1402 41.5556 32.3881 41.657 32.636 41.7434V42.2166C32.636 42.8813 33.1768 43.4221 33.8377 43.4221H36.1586C36.8233 43.4221 37.3641 42.8813 37.3641 42.2166V41.7434C37.6119 41.657 37.856 41.5557 38.0926 41.4392L38.4305 41.7771C38.8849 42.2315 39.6811 42.2315 40.1355 41.7771L41.7766 40.1361C42.2423 39.6666 42.2423 38.9005 41.7766 38.4311L41.4387 38.0969C41.5551 37.8565 41.6565 37.6125 41.7391 37.3646H42.216C42.8807 37.3646 43.4215 36.8238 43.4215 36.1591V33.842C43.4216 33.1773 42.8808 32.6365 42.216 32.6365ZM35.0019 37.9016C33.3984 37.9016 32.0989 36.5985 32.0989 35.0025C32.0989 33.4026 33.3983 32.0995 35.0019 32.0995C36.6017 32.0995 37.9011 33.4026 37.9011 35.0025C37.9011 36.5986 36.6017 37.9016 35.0019 37.9016Z" fill="#FF9D00"/>
<path d="M20.8365 40.9659C20.919 41.1574 20.829 41.3752 20.6374 41.4578C20.5923 41.4766 20.5397 41.4879 20.491 41.4879C20.3445 41.4879 20.2056 41.4015 20.1455 41.2551C19.308 39.2722 18.8836 37.1691 18.8836 34.9985C18.8836 32.8429 19.3042 30.7436 20.1341 28.7645C20.213 28.573 20.4345 28.4829 20.6261 28.5617C20.8176 28.6444 20.9077 28.8622 20.8289 29.0537C20.0365 30.9427 19.6347 32.9405 19.6347 34.9985C19.6347 37.0677 20.0403 39.0731 20.8365 40.9659Z" fill="white"/>
<path d="M17.4753 18.4746C17.4753 17.025 18.6545 15.8496 20.1041 15.8496C21.55 15.8496 22.7291 17.0251 22.7291 18.4746C22.7291 19.9241 21.5499 21.1034 20.1041 21.1034C18.6545 21.1034 17.4753 19.9241 17.4753 18.4746Z" fill="white"/>
<path d="M24.3591 25.6958C24.3591 26.6384 23.5892 27.4083 22.6466 27.4083H17.558C16.6154 27.4083 15.8492 26.6384 15.8492 25.6958C15.8492 23.7205 17.4566 22.1094 19.4356 22.1094H20.7688C22.748 22.1094 24.3591 23.7205 24.3591 25.6958Z" fill="white"/>
<path d="M49.8959 47.8495C51.3456 47.8495 52.5209 46.6725 52.5209 45.2206C52.5209 43.7688 51.3456 42.5918 49.8959 42.5918C48.4461 42.5918 47.2709 43.7688 47.2709 45.2206C47.2709 46.6725 48.4461 47.8495 49.8959 47.8495Z" fill="white"/>
<path d="M54.1508 52.4419C54.1508 53.3845 53.3847 54.1505 52.4421 54.1505H47.3535C46.4071 54.1505 45.641 53.3845 45.641 52.4419C45.641 50.4627 47.2521 48.8555 49.2312 48.8555H50.5644C52.5397 48.8555 54.1508 50.4628 54.1508 52.4419Z" fill="white"/>
<path d="M46.1818 46.6024C43.1699 49.5129 39.1967 51.1164 35.0019 51.1164C30.8109 51.1164 26.8376 49.5129 23.8183 46.6024C23.6681 46.456 23.6643 46.2194 23.807 46.0692C23.9535 45.9189 24.1901 45.9152 24.3403 46.0617C27.217 48.8369 31.0062 50.3653 35.002 50.3653C39.0015 50.3653 42.787 48.8369 45.6599 46.0654C45.8101 45.9189 46.0466 45.9227 46.1894 46.0729C46.3357 46.2231 46.332 46.4598 46.1818 46.6024Z" fill="white"/>
<path d="M17.4753 45.2206C17.4753 43.771 18.6545 42.5918 20.1041 42.5918C21.55 42.5918 22.7291 43.771 22.7291 45.2206C22.7291 46.6702 21.5499 47.8495 20.1041 47.8495C18.6545 47.8494 17.4753 46.6702 17.4753 45.2206Z" fill="white"/>
<path d="M24.3591 52.4419C24.3591 53.3845 23.5892 54.1505 22.6466 54.1505H17.558C16.6154 54.1505 15.8492 53.3845 15.8492 52.4419C15.8492 50.4627 17.4566 48.8555 19.4356 48.8555H20.7688C22.748 48.8555 24.3591 50.4628 24.3591 52.4419Z" fill="white"/>
</g>
<defs>
<clipPath id="clip0_721_430">
<rect width="40" height="40" fill="white" transform="translate(15 15)"/>
</clipPath>
</defs>
</svg>
