<svg width="12" height="12" viewBox="0 0 12 12" fill="none" xmlns="http://www.w3.org/2000/svg">
<path d="M2 10C1.725 10 1.48967 9.90217 1.294 9.7065C1.098 9.5105 1 9.275 1 9V3C1 2.725 1.098 2.48967 1.294 2.294C1.48967 2.098 1.725 2 2 2H4.5875C4.72083 2 4.848 2.025 4.969 2.075C5.08967 2.125 5.19583 2.19583 5.2875 2.2875L6 3H10C10.275 3 10.5105 3.098 10.7065 3.294C10.9022 3.48967 11 3.725 11 4H3C2.725 4 2.48967 4.09783 2.294 4.2935C2.098 4.4895 2 4.725 2 5V9L2.9875 5.7125C3.05417 5.49583 3.17717 5.32283 3.3565 5.1935C3.5355 5.0645 3.73333 5 3.95 5H10.4C10.7417 5 11.0105 5.13533 11.2065 5.406C11.4022 5.677 11.4542 5.97083 11.3625 6.2875L10.4625 9.2875C10.3958 9.50417 10.273 9.67717 10.094 9.8065C9.91467 9.9355 9.71667 10 9.5 10H2Z" fill="#848383"/>
</svg>
