<svg width="25" height="26" viewBox="0 0 25 26" fill="none" xmlns="http://www.w3.org/2000/svg">
<rect y="0.592773" width="25" height="25" rx="12.5" fill="#017373"/>
<g clip-path="url(#clip0_259_198)">
<path fill-rule="evenodd" clip-rule="evenodd" d="M8.6 11.8189C9.61111 13.8411 11.3444 15.5022 13.3667 16.5855L14.9556 14.9967C15.1722 14.78 15.4611 14.7078 15.6778 14.8522C16.4722 15.1411 17.3389 15.2855 18.2778 15.2855C18.7111 15.2855 19 15.5744 19 16.0078V18.4633C19 18.8967 18.7111 19.1855 18.2778 19.1855C11.4889 19.1855 6 13.6967 6 6.90777C6 6.47444 6.28889 6.18555 6.72222 6.18555H9.25C9.68333 6.18555 9.97222 6.47444 9.97222 6.90777C9.97222 7.77444 10.1167 8.6411 10.4056 9.50777C10.4778 9.72444 10.4056 10.0133 10.2611 10.23L8.6 11.8189Z" fill="#EEFFFF"/>
</g>
<defs>
<clipPath id="clip0_259_198">
<rect width="13" height="13" fill="white" transform="translate(6 6.18555)"/>
</clipPath>
</defs>
</svg>
