<svg width="26" height="25" viewBox="0 0 26 25" fill="none" xmlns="http://www.w3.org/2000/svg">
<rect x="0.5" width="25" height="25" rx="12.5" fill="#017373"/>
<g clip-path="url(#clip0_1884_559)">
<path d="M13.2461 8.04173C15.0316 8.04173 16.4917 8.0718 17.8425 8.13196H17.8616H17.8807C18.5124 8.13196 19.0292 8.73351 19.0292 9.4745V9.50458L19.0319 9.53466C19.0948 10.4643 19.1249 11.4295 19.1249 12.4029C19.1276 13.3764 19.0948 14.3416 19.0319 15.2712L19.0292 15.3013V15.3314C19.0292 15.7087 18.9006 16.0587 18.6628 16.3185C18.4495 16.5536 18.1706 16.6849 17.8807 16.6849H17.8589H17.837C16.3905 16.7532 14.8621 16.7888 13.2871 16.7888C13.1914 16.7888 13.093 16.7888 12.9973 16.7888C12.8988 16.7888 12.8004 16.7888 12.702 16.7888C11.1215 16.7888 9.59306 16.7532 8.15755 16.6876H8.13568H8.1138C7.82397 16.6876 7.5478 16.5564 7.33453 16.3212C7.09938 16.0614 6.96813 15.7115 6.96813 15.3341V15.304L6.9654 15.274C6.89977 14.3416 6.86969 13.3764 6.87516 12.4111V12.4084V12.4057C6.87243 11.4405 6.90251 10.478 6.9654 9.54559L6.96813 9.51552V9.48544C6.96813 8.74171 7.48218 8.13743 8.1138 8.13743H8.13294H8.15208C9.50557 8.07454 10.9657 8.04719 12.7512 8.04719H12.9973H13.2461M13.2461 7.16675C13.1641 7.16675 13.082 7.16675 13 7.16675C12.918 7.16675 12.8359 7.16675 12.7539 7.16675C11.179 7.16675 9.63134 7.18862 8.11654 7.25698C7.00094 7.25698 6.09589 8.24953 6.09589 9.47997C6.02753 10.4589 5.99745 11.4323 6.00019 12.4084C5.99745 13.3846 6.02479 14.358 6.09315 15.3341C6.09315 16.5646 6.99821 17.5653 8.1138 17.5653C9.6122 17.6364 11.1407 17.6692 12.702 17.6692C12.8004 17.6692 12.9016 17.6692 13 17.6692C13.0984 17.6692 13.1969 17.6692 13.2926 17.6692C14.8539 17.6692 16.3823 17.6364 17.8835 17.5653C19.0018 17.5653 19.9069 16.5646 19.9069 15.3341C19.9725 14.358 20.0026 13.3818 19.9998 12.4057C20.0026 11.4295 19.9725 10.4561 19.9069 9.47724C19.9069 8.2468 19.0018 7.25971 17.8835 7.25971C16.3687 7.18862 14.8238 7.16675 13.2461 7.16675Z" fill="#EEFFFF"/>
<path d="M11.6602 15.0906V9.72046L15.6249 12.4055L11.6602 15.0906Z" fill="#EEFFFF"/>
</g>
<defs>
<clipPath id="clip0_1884_559">
<rect width="14" height="14" fill="white" transform="translate(6 6)"/>
</clipPath>
</defs>
</svg>
