<svg width="26" height="25" viewBox="0 0 26 25" fill="none" xmlns="http://www.w3.org/2000/svg">
<rect x="0.5" width="25" height="25" rx="12.5" fill="#017373"/>
<g clip-path="url(#clip0_259_184)">
<path fill-rule="evenodd" clip-rule="evenodd" d="M17.4 7.18555H8.6C7.995 7.18555 7.5 7.68055 7.5 8.28555V17.0855C7.5 17.6905 7.995 18.1855 8.6 18.1855H17.4C18.005 18.1855 18.5 17.6905 18.5 17.0855V8.28555C18.5 7.68055 18.005 7.18555 17.4 7.18555ZM13 10.4855C14.21 10.4855 15.2 11.4755 15.2 12.6855C15.2 13.8955 14.21 14.8855 13 14.8855C11.79 14.8855 10.8 13.8955 10.8 12.6855C10.8 11.4755 11.79 10.4855 13 10.4855ZM8.875 17.0855C8.71 17.0855 8.6 16.9755 8.6 16.8105V12.1355H9.755C9.7 12.3005 9.7 12.5205 9.7 12.6855C9.7 14.5005 11.185 15.9855 13 15.9855C14.815 15.9855 16.3 14.5005 16.3 12.6855C16.3 12.5205 16.3 12.3005 16.245 12.1355H17.4V16.8105C17.4 16.9755 17.29 17.0855 17.125 17.0855H8.875ZM17.4 9.66055C17.4 9.82555 17.29 9.93555 17.125 9.93555H16.025C15.86 9.93555 15.75 9.82555 15.75 9.66055V8.56055C15.75 8.39555 15.86 8.28555 16.025 8.28555H17.125C17.29 8.28555 17.4 8.39555 17.4 8.56055V9.66055Z" fill="#EEFFFF"/>
</g>
<defs>
<clipPath id="clip0_259_184">
<rect width="12" height="12" fill="white" transform="translate(6.5 6.59277)"/>
</clipPath>
</defs>
</svg>
