<svg width="26" height="25" viewBox="0 0 26 25" fill="none" xmlns="http://www.w3.org/2000/svg">
<rect x="0.5" width="25" height="25" rx="12.5" fill="#017373"/>
<path fill-rule="evenodd" clip-rule="evenodd" d="M6.56273 7.60937C6.56273 6.7555 7.25573 6.0625 8.1096 6.0625C8.96348 6.0625 9.65648 6.7555 9.65648 7.60937C9.65648 8.46325 8.96348 9.15625 8.1096 9.15625C7.25573 9.15625 6.56273 8.46325 6.56273 7.60937ZM14.9159 9.77526C12.6946 9.77526 10.8933 11.5655 10.8933 13.7724V17.8183C10.8933 18.16 11.1711 18.4378 11.5128 18.4378H12.9558C13.2975 18.4378 13.5753 18.16 13.5753 17.8183V13.7724C13.5753 12.9914 14.2518 12.3671 15.0548 12.4476C15.7519 12.517 16.2558 13.1543 16.2558 13.8549V17.8183C16.2558 18.16 16.5336 18.4378 16.8753 18.4378H18.3183C18.66 18.4378 18.9378 18.16 18.9378 17.8183V13.7724C18.9378 11.5655 17.1365 9.77526 14.9159 9.77526ZM9.03723 10.3936H7.18166C6.83998 10.3936 6.56223 10.6707 6.56223 11.0124V17.8186C6.56223 18.1603 6.83998 18.4374 7.18166 18.4374H9.03723C9.37891 18.4374 9.65598 18.1603 9.65598 17.8186V11.0124C9.65598 10.6707 9.37891 10.3936 9.03723 10.3936Z" fill="#EEFFFF"/>
<mask id="mask0_259_180" style="mask-type:alpha" maskUnits="userSpaceOnUse" x="6" y="6" width="13" height="13">
<path fill-rule="evenodd" clip-rule="evenodd" d="M6.56273 7.60937C6.56273 6.7555 7.25573 6.0625 8.1096 6.0625C8.96348 6.0625 9.65648 6.7555 9.65648 7.60937C9.65648 8.46325 8.96348 9.15625 8.1096 9.15625C7.25573 9.15625 6.56273 8.46325 6.56273 7.60937ZM14.9159 9.77526C12.6946 9.77526 10.8933 11.5655 10.8933 13.7724V17.8183C10.8933 18.16 11.1711 18.4378 11.5128 18.4378H12.9558C13.2975 18.4378 13.5753 18.16 13.5753 17.8183V13.7724C13.5753 12.9914 14.2518 12.3671 15.0548 12.4476C15.7519 12.517 16.2558 13.1543 16.2558 13.8549V17.8183C16.2558 18.16 16.5336 18.4378 16.8753 18.4378H18.3183C18.66 18.4378 18.9378 18.16 18.9378 17.8183V13.7724C18.9378 11.5655 17.1365 9.77526 14.9159 9.77526ZM9.03723 10.3936H7.18166C6.83998 10.3936 6.56223 10.6707 6.56223 11.0124V17.8186C6.56223 18.1603 6.83998 18.4374 7.18166 18.4374H9.03723C9.37891 18.4374 9.65598 18.1603 9.65598 17.8186V11.0124C9.65598 10.6707 9.37891 10.3936 9.03723 10.3936Z" fill="white"/>
</mask>
<g mask="url(#mask0_259_180)">
</g>
</svg>
