<svg width="26" height="25" viewBox="0 0 26 25" fill="none" xmlns="http://www.w3.org/2000/svg">
<rect x="0.5" width="25" height="25" rx="12.5" fill="#017373"/>
<path fill-rule="evenodd" clip-rule="evenodd" d="M16.3333 6.83333C16.3333 6.64933 16.1833 6.5 16 6.5H14.3333C12.492 6.5 11 7.84333 11 9.5V11.3H9.33333C9.14933 11.3 9 11.4493 9 11.6333V13.3667C9 13.5507 9.14933 13.7 9.33333 13.7H11V18.1667C11 18.3507 11.1493 18.5 11.3333 18.5H13.3333C13.5167 18.5 13.6667 18.3507 13.6667 18.1667V13.7H15.4127C15.5627 13.7 15.694 13.6 15.7347 13.456L16.2153 11.7227C16.2747 11.5107 16.1147 11.3 15.8947 11.3H13.6667V9.5C13.6667 9.16867 13.9647 8.9 14.3333 8.9H16C16.1833 8.9 16.3333 8.75067 16.3333 8.56667V6.83333Z" fill="#EEFFFF"/>
<mask id="mask0_259_182" style="mask-type:alpha" maskUnits="userSpaceOnUse" x="9" y="6" width="8" height="13">
<path fill-rule="evenodd" clip-rule="evenodd" d="M16.3333 6.83333C16.3333 6.64933 16.1833 6.5 16 6.5H14.3333C12.492 6.5 11 7.84333 11 9.5V11.3H9.33333C9.14933 11.3 9 11.4493 9 11.6333V13.3667C9 13.5507 9.14933 13.7 9.33333 13.7H11V18.1667C11 18.3507 11.1493 18.5 11.3333 18.5H13.3333C13.5167 18.5 13.6667 18.3507 13.6667 18.1667V13.7H15.4127C15.5627 13.7 15.694 13.6 15.7347 13.456L16.2153 11.7227C16.2747 11.5107 16.1147 11.3 15.8947 11.3H13.6667V9.5C13.6667 9.16867 13.9647 8.9 14.3333 8.9H16C16.1833 8.9 16.3333 8.75067 16.3333 8.56667V6.83333Z" fill="white"/>
</mask>
<g mask="url(#mask0_259_182)">
</g>
</svg>
