<svg width="25" height="26" viewBox="0 0 25 26" fill="none" xmlns="http://www.w3.org/2000/svg">
<rect y="0.592773" width="25" height="25" rx="12.5" fill="#017373"/>
<path fill-rule="evenodd" clip-rule="evenodd" d="M17.79 17.7943H6.8922C6.4633 17.7943 6.11379 17.4556 6.11379 17.0383V9.66708L11.874 13.863C12.0126 13.9643 12.1768 14.0142 12.3411 14.0142C12.5053 14.0142 12.6696 13.9643 12.8081 13.863L18.5684 9.66708V17.0383C18.5684 17.4556 18.2189 17.7943 17.79 17.7943ZM17.2708 8.72204L12.3411 12.3131L7.4114 8.72204H17.2708ZM17.7898 7.20996H6.89205C5.60455 7.20996 4.55681 8.22757 4.55681 9.47803V17.0382C4.55681 18.2887 5.60455 19.3063 6.89205 19.3063H17.7898C19.0773 19.3063 20.1251 18.2887 20.1251 17.0382V9.47803C20.1251 8.22757 19.0773 7.20996 17.7898 7.20996Z" fill="#EEFFFF"/>
<mask id="mask0_393_1788" style="mask-type:luminance" maskUnits="userSpaceOnUse" x="4" y="7" width="17" height="13">
<path fill-rule="evenodd" clip-rule="evenodd" d="M17.79 17.7943H6.8922C6.4633 17.7943 6.11379 17.4556 6.11379 17.0383V9.66708L11.874 13.863C12.0126 13.9643 12.1768 14.0142 12.3411 14.0142C12.5053 14.0142 12.6696 13.9643 12.8081 13.863L18.5684 9.66708V17.0383C18.5684 17.4556 18.2189 17.7943 17.79 17.7943ZM17.2708 8.72204L12.3411 12.3131L7.4114 8.72204H17.2708ZM17.7898 7.20996H6.89205C5.60455 7.20996 4.55681 8.22757 4.55681 9.47803V17.0382C4.55681 18.2887 5.60455 19.3063 6.89205 19.3063H17.7898C19.0773 19.3063 20.1251 18.2887 20.1251 17.0382V9.47803C20.1251 8.22757 19.0773 7.20996 17.7898 7.20996Z" fill="white"/>
</mask>
<g mask="url(#mask0_393_1788)">
</g>
</svg>
