<svg width="154" height="45" viewBox="0 0 154 45" fill="none" xmlns="http://www.w3.org/2000/svg">
<path d="M141.965 29.6409L129.882 41.6659L117.79 29.6409L105.706 41.6659L93.6226 29.6409L82.9647 40.2473L72.2995 29.6409L60.2156 41.6659L48.1244 29.6409L36.0406 41.6659L23.9567 29.6409L11.9611 41.5777L13.2988 42.9155L23.9567 32.309L36.0406 44.3341L48.1244 32.309L60.2156 44.3341L72.2995 32.309L82.9647 42.9228L93.6226 32.309L105.706 44.3341L117.79 32.309L129.882 44.3341L141.965 32.309L152.631 42.9155L153.961 41.5777L141.965 29.6409Z" fill="#019595"/>
<path d="M11.9955 36.3328L24.1401 24.3691L36.1703 36.4553L48.3148 24.4916L60.3376 36.5777L71.0491 26.0253L81.6605 36.6856L93.8051 24.7219L105.835 36.8081L117.98 24.8444L130.003 36.9305L142.059 25.0545L140.728 23.71L130.016 34.2623L117.993 22.1763L105.849 34.14L93.8186 22.0538L81.674 34.0175L71.0627 23.3499L60.3512 33.9095L48.3283 21.8235L36.1838 33.7872L24.1536 21.701L12.009 33.6647L1.39759 23.0044L0.0604387 24.3354L11.9955 36.3328Z" fill="#019595"/>
<path d="M141.965 8.14136L129.881 20.1664L117.79 8.14136L105.706 20.1664L93.6225 8.14136L84.0378 17.682L84.0304 20.3575L93.6225 10.8095L105.706 22.8346L117.79 10.8095L129.881 22.8346L141.965 10.8095L152.631 21.416L153.961 20.0709L141.965 8.14136Z" fill="#FF9D00"/>
<path d="M141.115 0L129.032 12.0251L116.94 0L104.857 12.0251L92.7727 0L83.1879 9.54066L83.1805 12.2162L92.7727 2.66815L104.857 14.6932L116.94 2.66815L129.032 14.6932L141.115 2.66815L151.781 13.2746L153.111 11.9295L141.115 0Z" fill="#FF9D00"/>
</svg>
