<svg width="154" height="45" viewBox="0 0 154 45" fill="none" xmlns="http://www.w3.org/2000/svg">
<path d="M11.9957 14.6934L24.0795 2.66831L36.1707 14.6934L48.2546 2.66831L60.3384 14.6934L70.9963 4.08691L81.6616 14.6934L93.7454 2.66831L105.837 14.6934L117.92 2.66831L130.004 14.6934L142 2.75651L140.662 1.41876L130.004 12.0252L117.92 0.000157356L105.837 12.0252L93.7454 0.000157356L81.6616 12.0252L70.9963 1.41141L60.3384 12.0252L48.2546 0.000157356L36.1707 12.0252L24.0795 0.000157356L11.9957 12.0252L1.3304 1.41876L0 2.75651L11.9957 14.6934Z" fill="#019595"/>
<path d="M141.966 8.00138L129.821 19.9651L117.791 7.87895L105.646 19.8427L93.6234 7.75656L82.9119 18.3089L72.3005 7.64858L60.1559 19.6123L48.1258 7.52615L35.9812 19.4899L23.9584 7.40377L11.9024 19.2797L13.2334 20.6242L23.9449 10.0719L35.9677 22.158L48.1123 10.1943L60.1424 22.2804L72.287 10.3167L82.8984 20.9844L93.6099 10.4247L105.633 22.5108L117.777 10.5471L129.807 22.6332L141.952 10.6695L152.563 21.3298L153.901 19.9988L141.966 8.00138Z" fill="#019595"/>
<path d="M11.9958 36.1929L24.0796 24.1678L36.1708 36.1929L48.2547 24.1678L60.3386 36.1929L69.9233 26.6522L69.9307 23.9767L60.3386 33.5247L48.2547 21.4997L36.1708 33.5247L24.0796 21.4997L11.9958 33.5247L1.33052 22.9183L0.00012207 24.2634L11.9958 36.1929Z" fill="#FF9D00"/>
<path d="M12.8456 44.3342L24.9295 32.3092L37.0207 44.3342L49.1045 32.3092L61.1884 44.3342L70.7732 34.7936L70.7805 32.1181L61.1884 41.6661L49.1045 29.641L37.0207 41.6661L24.9295 29.641L12.8456 41.6661L2.18037 31.0596L0.849976 32.4047L12.8456 44.3342Z" fill="#FF9D00"/>
</svg>
