<svg width="50" height="50" viewBox="0 0 50 50" fill="none" xmlns="http://www.w3.org/2000/svg">
<rect width="50" height="50" rx="25" fill="#019595"/>
<path fill-rule="evenodd" clip-rule="evenodd" d="M12.9998 16.1113H22.3332C23.0665 16.1113 23.6665 16.6113 23.6665 17.2224C23.6665 17.8336 23.0665 18.3336 22.3332 18.3336H12.9998C12.2665 18.3336 11.6665 17.8336 11.6665 17.2224C11.6665 16.6113 12.2665 16.1113 12.9998 16.1113ZM16.9998 23.8891H22.3332C23.0665 23.8891 23.6665 24.3891 23.6665 25.0002C23.6665 25.6113 23.0665 26.1113 22.3332 26.1113H16.9998C16.2665 26.1113 15.6665 25.6113 15.6665 25.0002C15.6665 24.3891 16.2665 23.8891 16.9998 23.8891ZM22.3332 31.6669H19.6665C18.9332 31.6669 18.3332 32.1669 18.3332 32.778C18.3332 33.3891 18.9332 33.8891 19.6665 33.8891H22.3332C23.0665 33.8891 23.6665 33.3891 23.6665 32.778C23.6665 32.1669 23.0665 31.6669 22.3332 31.6669ZM34.3335 30.1601L36.0735 28.7601C36.6042 28.3345 37.4482 28.3468 37.9588 28.7879C38.4708 29.2301 38.4562 29.9334 37.9268 30.359L33.9268 33.5779C33.6668 33.7845 33.3335 33.889 33.0002 33.889C32.6588 33.889 32.3175 33.7812 32.0575 33.5634L28.0575 30.2301C27.5362 29.7968 27.5362 29.0934 28.0575 28.659C28.5775 28.2257 29.4215 28.2257 29.9428 28.659L31.6668 30.0957V19.8412L29.9268 21.2401C29.3975 21.6668 28.5535 21.6534 28.0415 21.2123C27.5295 20.7712 27.5442 20.0679 28.0735 19.6412L32.0735 16.4223C32.5988 16.0045 33.4295 16.0068 33.9428 16.4368L37.9428 19.7701C38.4628 20.2045 38.4628 20.9079 37.9428 21.3412C37.6828 21.559 37.3415 21.6668 37.0002 21.6668C36.6588 21.6668 36.3175 21.559 36.0575 21.3412L34.3335 19.9045V30.1601Z" fill="#FF9D00"/>
<mask id="mask0_979_2913" style="mask-type:luminance" maskUnits="userSpaceOnUse" x="11" y="16" width="28" height="18">
<path fill-rule="evenodd" clip-rule="evenodd" d="M12.9998 16.1113H22.3332C23.0665 16.1113 23.6665 16.6113 23.6665 17.2224C23.6665 17.8336 23.0665 18.3336 22.3332 18.3336H12.9998C12.2665 18.3336 11.6665 17.8336 11.6665 17.2224C11.6665 16.6113 12.2665 16.1113 12.9998 16.1113ZM16.9998 23.8891H22.3332C23.0665 23.8891 23.6665 24.3891 23.6665 25.0002C23.6665 25.6113 23.0665 26.1113 22.3332 26.1113H16.9998C16.2665 26.1113 15.6665 25.6113 15.6665 25.0002C15.6665 24.3891 16.2665 23.8891 16.9998 23.8891ZM22.3332 31.6669H19.6665C18.9332 31.6669 18.3332 32.1669 18.3332 32.778C18.3332 33.3891 18.9332 33.8891 19.6665 33.8891H22.3332C23.0665 33.8891 23.6665 33.3891 23.6665 32.778C23.6665 32.1669 23.0665 31.6669 22.3332 31.6669ZM34.3335 30.1601L36.0735 28.7601C36.6042 28.3345 37.4482 28.3468 37.9588 28.7879C38.4708 29.2301 38.4562 29.9334 37.9268 30.359L33.9268 33.5779C33.6668 33.7845 33.3335 33.889 33.0002 33.889C32.6588 33.889 32.3175 33.7812 32.0575 33.5634L28.0575 30.2301C27.5362 29.7968 27.5362 29.0934 28.0575 28.659C28.5775 28.2257 29.4215 28.2257 29.9428 28.659L31.6668 30.0957V19.8412L29.9268 21.2401C29.3975 21.6668 28.5535 21.6534 28.0415 21.2123C27.5295 20.7712 27.5442 20.0679 28.0735 19.6412L32.0735 16.4223C32.5988 16.0045 33.4295 16.0068 33.9428 16.4368L37.9428 19.7701C38.4628 20.2045 38.4628 20.9079 37.9428 21.3412C37.6828 21.559 37.3415 21.6668 37.0002 21.6668C36.6588 21.6668 36.3175 21.559 36.0575 21.3412L34.3335 19.9045V30.1601Z" fill="white"/>
</mask>
<g mask="url(#mask0_979_2913)">
</g>
</svg>
