<svg width="16" height="16" viewBox="0 0 16 16" fill="none" xmlns="http://www.w3.org/2000/svg">
<path d="M11.9477 5.50969C10.1508 4.60554 7.90448 4.90431 6.40465 6.40602C4.94192 7.87057 4.62191 10.046 5.44463 11.8216C5.33039 11.7662 5.2173 11.7041 5.10566 11.6351C4.99483 11.5665 4.93941 11.5322 4.8975 11.5156C4.81738 11.4838 4.75662 11.4746 4.6707 11.4813C4.62577 11.4847 4.57487 11.498 4.47306 11.5244C3.83233 11.6907 3.51193 11.7738 3.28112 11.7268C2.88054 11.6452 2.56747 11.3317 2.48595 10.9306C2.43897 10.6995 2.52201 10.3787 2.68808 9.73722C2.71448 9.63524 2.72768 9.58425 2.73114 9.53911C2.73773 9.45309 2.72836 9.39154 2.69648 9.31138C2.67975 9.26933 2.64555 9.21423 2.57716 9.10404C1.3421 7.11419 2.29792 4.70188 3.50441 3.49389C5.49378 1.50204 8.7192 1.50204 10.7086 3.49389C11.2937 4.07975 11.7067 4.77268 11.9477 5.50969Z" fill="#848383"/>
<path fill-rule="evenodd" clip-rule="evenodd" d="M11.4433 13.5348C9.80306 14.5497 7.78212 13.7247 6.82912 12.7705C5.19082 11.1302 5.19082 8.47062 6.82912 6.83027C8.46743 5.18991 11.1237 5.18991 12.762 6.83027C13.7555 7.82508 14.5427 9.81168 13.5256 11.4504C13.4693 11.5411 13.4411 11.5865 13.4273 11.6211C13.4011 11.6872 13.3933 11.7378 13.3988 11.8087C13.4016 11.8459 13.4125 11.8878 13.4342 11.9718C13.571 12.5001 13.6394 12.7643 13.6007 12.9546C13.5336 13.2849 13.2757 13.5431 12.9458 13.6103C12.7558 13.649 12.4919 13.5806 11.9643 13.4436C11.8804 13.4219 11.8385 13.411 11.8015 13.4081C11.7307 13.4026 11.6807 13.4102 11.6147 13.4364C11.5802 13.45 11.5346 13.4783 11.4433 13.5348ZM8.60043 9.8C8.60043 10.1314 8.33179 10.4 8.00042 10.4C7.66904 10.4 7.40041 10.1314 7.40041 9.8C7.40041 9.46863 7.66904 9.2 8.00042 9.2C8.33179 9.2 8.60043 9.46863 8.60043 9.8ZM10.4004 9.8C10.4004 10.1314 10.1318 10.4 9.80044 10.4C9.46907 10.4 9.20043 10.1314 9.20043 9.8C9.20043 9.46863 9.46907 9.2 9.80044 9.2C10.1318 9.2 10.4004 9.46863 10.4004 9.8ZM11.6005 10.4C11.9318 10.4 12.2005 10.1314 12.2005 9.8C12.2005 9.46863 11.9318 9.2 11.6005 9.2C11.2691 9.2 11.0005 9.46863 11.0005 9.8C11.0005 10.1314 11.2691 10.4 11.6005 10.4Z" fill="#848383"/>
</svg>
