<svg width="101" height="100" viewBox="0 0 101 100" fill="none" xmlns="http://www.w3.org/2000/svg">
<rect x="0.5" width="100" height="100" rx="50" fill="#019595"/>
<path d="M80 49C80 46.656 78.988 44.551 77.381 43.088C77.779 42.137 78 41.095 78 40C78 35.92 74.946 32.554 71 32.062L70.928 33.207C70.581 30.6 68.58 28.517 66.002 28.083L65.987 28.267C65.989 28.177 66 28.09 66 28C66 23.582 62.418 20 58 20C53.582 20 50 23.582 50 28V73C50 76.866 53.134 80 57 80C59.809 80 62.225 78.341 63.34 75.953C63.559 75.974 63.776 76 64 76C67.866 76 71 72.866 71 69V68.578C72.564 67.894 73.708 66.435 73.949 64.685L74 64.71C76.891 63.849 79 61.171 79 58C79 56.653 78.613 55.399 77.953 54.331C79.222 52.915 80 51.051 80 49ZM62 59L62.104 59.05C61.911 59.293 61.853 59.311 62 59Z" fill="#FF9D00"/>
<path d="M50 65C41.729 65 35 58.271 35 50C35 41.729 41.729 35 50 35V37C42.832 37 37 42.832 37 50C37 57.168 42.832 63 50 63V65Z" fill="#FF9D00"/>
<path d="M46.843 69.7279C41.592 68.8939 36.802 65.9239 33.702 61.5819L35.33 60.4199C38.121 64.3289 42.431 67.0019 47.156 67.7529L46.843 69.7279Z" fill="#FF9D00"/>
<path d="M32.387 59.4735C30.825 56.5835 30 53.3075 30 50.0005C30 40.1215 37.083 31.8245 46.843 30.2725L47.157 32.2475C38.375 33.6445 32 41.1105 32 50.0005C32 52.9775 32.742 55.9235 34.146 58.5215L32.387 59.4735Z" fill="#FF9D00"/>
<path d="M81 49C81 46.694 80.109 44.489 78.539 42.825C78.834 41.936 79 40.987 79 40C79 35.556 75.74 31.785 71.378 31.113C70.553 29.281 68.961 27.863 66.963 27.284C66.597 22.656 62.721 19 58 19C55.174 19 52.651 20.312 51 22.356V19H43.219L41.623 25.382C40.572 25.74 39.532 26.173 38.52 26.673L32.874 23.285L23.284 32.874L26.672 38.52C26.171 39.535 25.738 40.575 25.381 41.624L19 43.22V56.78L25.382 58.376C25.799 59.599 26.318 60.81 26.927 61.981L28.701 61.059C28.055 59.818 27.521 58.532 27.113 57.239L26.945 56.705L21 55.219V44.781L26.945 43.295L27.113 42.761C27.522 41.468 28.056 40.182 28.701 38.941L28.959 38.445L25.802 33.185L33.183 25.803L38.444 28.96L38.941 28.701C40.177 28.057 41.462 27.523 42.76 27.114L43.294 26.945L44.781 21H49V79H44.781L43.295 73.055L42.761 72.886C41.464 72.477 40.178 71.943 38.942 71.299L38.445 71.04L33.184 74.197L25.251 66.263L23.837 67.677L32.875 76.714L38.521 73.326C39.533 73.826 40.573 74.259 41.624 74.617L43.219 81H51V78.274C52.467 79.941 54.61 81 57 81C59.956 81 62.536 79.385 63.921 76.994C63.947 76.995 63.974 77 64 77C68.346 77 71.886 73.515 71.99 69.194C73.377 68.392 74.411 67.054 74.812 65.462C77.886 64.3 80 61.323 80 58C80 56.764 79.711 55.547 79.158 54.441C80.351 52.877 81 50.971 81 49ZM77.103 54.856C77.689 55.807 78 56.894 78 58C78 60.179 76.785 62.159 74.942 63.208C74.552 60.274 72.04 58 69 58V60C71.206 60 73 61.794 73 64C73 66.206 71.206 68 69 68C66.794 68 65 66.206 65 64H63C63 67.309 65.691 70 69 70C69.314 70 69.62 69.968 69.922 69.922C69.514 72.549 67.401 74.615 64.75 74.948C64.907 74.323 65 73.673 65 73C65 68.589 61.411 65 57 65V67C60.309 67 63 69.691 63 73C63 76.309 60.309 79 57 79C53.691 79 51 76.309 51 73V28C51 24.141 54.14 21 58 21C61.86 21 65 24.141 65 28C65 31.859 61.86 35 58 35V37C62.493 37 66.216 33.688 66.883 29.379C68.735 30.128 70 31.923 70 34C70 36.757 67.757 39 65 39V41C68.86 41 72 37.859 72 34C72 33.758 71.985 33.52 71.961 33.284C74.897 34.139 77 36.852 77 40C77 43.859 73.86 47 70 47V49C73.196 49 76.001 47.321 77.598 44.803C78.499 46.004 79 47.474 79 49C79 50.718 78.364 52.374 77.208 53.664L76.709 54.221L77.103 54.856Z" fill="#EEFFFF"/>
<path d="M57 72H55V74H57V72Z" fill="#EEFFFF"/>
<path d="M62 49H60V51H62V49Z" fill="#EEFFFF"/>
<path d="M56 27H54V29H56V27Z" fill="#EEFFFF"/>
<path d="M73 42H71V44H73V42Z" fill="#EEFFFF"/>
<path d="M55 56H53V58H55V56Z" fill="#EEFFFF"/>
<path d="M74 54H72V56H74V54Z" fill="#EEFFFF"/>
</svg>
