<svg width="10" height="12" viewBox="0 0 10 12" fill="none" xmlns="http://www.w3.org/2000/svg">
<path fill-rule="evenodd" clip-rule="evenodd" d="M7.6923 2.875C7.6923 4.25375 6.4848 5.375 4.99999 5.375C3.51518 5.375 2.30768 4.25375 2.30768 2.875C2.30768 1.49625 3.51518 0.375 4.99999 0.375C6.4848 0.375 7.6923 1.49625 7.6923 2.875ZM9.71153 11C9.71153 11.345 9.41066 11.625 9.03845 11.625H0.961529C0.589318 11.625 0.288452 11.345 0.288452 11C0.288452 8.5875 2.40259 6.625 4.99999 6.625C7.59739 6.625 9.71153 8.5875 9.71153 11Z" fill="#848383"/>
<mask id="mask0_1962_1139" style="mask-type:luminance" maskUnits="userSpaceOnUse" x="0" y="0" width="10" height="12">
<path fill-rule="evenodd" clip-rule="evenodd" d="M7.6923 2.875C7.6923 4.25375 6.4848 5.375 4.99999 5.375C3.51518 5.375 2.30768 4.25375 2.30768 2.875C2.30768 1.49625 3.51518 0.375 4.99999 0.375C6.4848 0.375 7.6923 1.49625 7.6923 2.875ZM9.71153 11C9.71153 11.345 9.41066 11.625 9.03845 11.625H0.961529C0.589318 11.625 0.288452 11.345 0.288452 11C0.288452 8.5875 2.40259 6.625 4.99999 6.625C7.59739 6.625 9.71153 8.5875 9.71153 11Z" fill="white"/>
</mask>
<g mask="url(#mask0_1962_1139)">
</g>
</svg>
