<svg width="101" height="100" viewBox="0 0 101 100" fill="none" xmlns="http://www.w3.org/2000/svg">
<rect x="0.5" width="100" height="100" rx="50" fill="#019595"/>
<path d="M39.2948 42.8173L34.5938 41.25V34.6875L39.2948 33.1202L37.0788 28.6883L41.7196 24.0475L46.1515 26.2634L47.7188 21.5625H54.2813L55.8487 26.2634L60.2805 24.0475L64.9213 28.6883L62.7054 33.1202L67.4063 34.6875V41.25L62.7054 42.8173L64.9213 47.2492L60.2805 51.89L55.8487 49.6741L54.2813 54.375H47.7188L46.1515 49.6741L41.7196 51.89L37.0788 47.2492L39.2948 42.8173Z" fill="#FF9D00"/>
<path d="M54.2813 62.0312H52.0938V69.6875H54.2813V62.0312Z" fill="#FF9D00"/>
<path d="M54.2813 57.6562H52.0938V59.8438H54.2813V57.6562Z" fill="#FF9D00"/>
<path d="M49.9063 62.0312H47.7188V69.6875H49.9063V62.0312Z" fill="#FF9D00"/>
<path d="M49.9063 57.6562H47.7188V59.8438H49.9063V57.6562Z" fill="#FF9D00"/>
<path d="M59.7501 37.9688C59.7501 33.1442 55.8246 29.2188 51.0001 29.2188C46.1755 29.2188 42.2501 33.1442 42.2501 37.9688C42.2501 42.7933 46.1755 46.7188 51.0001 46.7188C55.8246 46.7188 59.7501 42.7933 59.7501 37.9688ZM51.0001 44.5312C47.3808 44.5312 44.4376 41.588 44.4376 37.9688C44.4376 34.3495 47.3808 31.4062 51.0001 31.4062C54.6193 31.4062 57.5626 34.3495 57.5626 37.9688C57.5626 41.588 54.6193 44.5312 51.0001 44.5312Z" fill="#EEFFFF"/>
<path d="M51.0001 33.5938C48.5873 33.5938 46.6251 35.5559 46.6251 37.9688C46.6251 40.3816 48.5873 42.3438 51.0001 42.3438C53.4129 42.3438 55.3751 40.3816 55.3751 37.9688C55.3751 35.5559 53.4129 33.5938 51.0001 33.5938ZM51.0001 40.1562C49.7937 40.1562 48.8126 39.1752 48.8126 37.9688C48.8126 36.7623 49.7937 35.7812 51.0001 35.7812C52.2065 35.7812 53.1876 36.7623 53.1876 37.9688C53.1876 39.1752 52.2065 40.1562 51.0001 40.1562Z" fill="#EEFFFF"/>
<path d="M52.0938 24.8438H49.9063V27.0312H52.0938V24.8438Z" fill="#EEFFFF"/>
<path d="M42.4927 27.9151L40.9459 29.4619L42.4927 31.0087L44.0395 29.4619L42.4927 27.9151Z" fill="#EEFFFF"/>
<path d="M40.0626 36.875H37.8751V39.0625H40.0626V36.875Z" fill="#EEFFFF"/>
<path d="M42.4921 44.9288L40.9454 46.4756L42.4921 48.0224L44.0389 46.4756L42.4921 44.9288Z" fill="#EEFFFF"/>
<path d="M52.0938 48.9062H49.9063V51.0938H52.0938V48.9062Z" fill="#EEFFFF"/>
<path d="M59.5067 44.9298L57.9599 46.4766L59.5067 48.0233L61.0535 46.4766L59.5067 44.9298Z" fill="#EEFFFF"/>
<path d="M64.1251 36.875H61.9376V39.0625H64.1251V36.875Z" fill="#EEFFFF"/>
<path d="M59.5072 27.9151L57.9604 29.4619L59.5072 31.0087L61.054 29.4619L59.5072 27.9151Z" fill="#EEFFFF"/>
<path d="M67.541 22.6807C62.6946 18.0913 56.3377 15.7539 49.6505 16.1313C37.1074 16.8171 27.1324 27.2055 26.941 39.7804C26.8382 46.4468 29.4118 52.6833 34.1882 57.3427C37.9769 61.0385 40.0627 65.7952 40.0627 70.7389V75.1566H61.9377V70.8549C61.9377 65.8586 64.0421 61.0418 67.8637 57.2924C72.5055 52.7369 75.0627 46.6513 75.0627 40.1566C75.0627 33.4804 72.3918 27.2744 67.541 22.6807ZM59.7502 72.9691H42.2502V70.7816H59.7546C59.7546 70.8068 59.7502 70.8308 59.7502 70.8549V72.9691ZM66.3324 55.7305C62.664 59.33 60.4283 63.8319 59.8869 68.5941H42.1299C41.6115 63.8418 39.3824 59.3541 35.7162 55.7764C31.3751 51.5414 29.0355 45.8725 29.1296 39.8143C29.3024 28.3824 38.3685 18.9389 49.7697 18.3144C55.8422 17.9874 61.6315 20.0972 66.0371 24.2688C70.446 28.4447 72.8752 34.0863 72.8752 40.1566C72.8752 46.0585 70.551 51.5896 66.3324 55.7305Z" fill="#EEFFFF"/>
<path d="M51.0001 81.7188C47.9846 81.7188 45.5313 79.7566 45.5313 77.3438H43.3438C43.3438 80.963 46.7793 83.9062 51.0001 83.9062C55.2208 83.9062 58.6563 80.963 58.6563 77.3438H56.4688C56.4688 79.7566 54.0155 81.7188 51.0001 81.7188Z" fill="#EEFFFF"/>
<path d="M63.0515 32.084L62.3591 34.1588L66.313 35.4768V40.4621L61.1626 42.1793L63.5907 47.0345L60.0655 50.5596L55.2104 48.1315L53.4932 53.282H48.5079L46.7907 48.1315L41.9355 50.5596L37.8526 46.4766L36.306 48.0232L41.5035 53.2207L45.5132 51.2159L46.9307 55.4695H55.0704L56.4879 51.2159L60.4976 53.2207L66.2518 47.4665L64.2469 43.4568L68.5005 42.0393V33.8996L63.0515 32.084Z" fill="#EEFFFF"/>
<path d="M39.6415 41.7794L35.6876 40.4614V35.4761L40.838 33.7589L38.4099 28.9037L41.9351 25.3786L46.7902 27.8056L48.5074 22.6562H53.4927L55.2099 27.8056L60.0651 25.3786L64.148 29.4616L65.6946 27.915L60.4971 22.7175L56.4874 24.7212L55.0699 20.4688H46.9302L45.5127 24.7212L41.503 22.7175L35.7488 28.4717L37.7537 32.4814L33.5001 33.8989V42.0386L38.9491 43.8542L39.6415 41.7794Z" fill="#EEFFFF"/>
</svg>
